<svg id="Layer_1" data-name="Layer 1" xmlns="http://www.w3.org/2000/svg" viewBox="0 0 289.01 251.8"><defs><style>.cls-1{fill:#fff;}.cls-2{fill:#bcbcbc;}.cls-3{fill:#7fa7d7;opacity:0.5;}</style></defs><path class="cls-1" d="M144.5,0V147.2l-125.2,47L.44,201.27A12,12,0,0,1,0,198a11.73,11.73,0,0,1,1.87-6.39l.53-.75L134.79,5.37l.36-.5A11.69,11.69,0,0,1,144.5,0Z"/><path class="cls-2" d="M289,198a12,12,0,0,1-.44,3.26l-18.85-7.07-125.22-47V0a11.69,11.69,0,0,1,9.35,4.87c.13.16.24.33.36.5l132.17,185.2,0,.05.86,1.21A11.64,11.64,0,0,1,289,198Z"/><path class="cls-1" d="M144.5,147.2V251.8a9.62,9.62,0,0,1-2.64-.37l-.6-.19L7,208.53a10.59,10.59,0,0,1-6.56-7.26l18.86-7.08Z"/><path class="cls-2" d="M288.57,201.27a10.62,10.62,0,0,1-6.53,7.25l-.14,0-134,42.62h0l-.91.29h0a9.93,9.93,0,0,1-2.46.31V147.2l125.22,47Z"/><path class="cls-3" d="M259.18,188.88c3.45,1.29,3.52,6.76.06,8l-.08,0-.12,0L147.79,232.34h0l-.75.24h0a8.17,8.17,0,0,1-2.05.26,8,8,0,0,1-2.2-.31l-.49-.16L30.78,196.93l-.09,0c-3.47-1.25-3.42-6.73,0-8L41,185l99.31-37.27a13.18,13.18,0,0,1,9.3,0L248.92,185Z"/></svg>